<svg xmlns="http://www.w3.org/2000/svg" xmlns:xlink="http://www.w3.org/1999/xlink" width="500" zoomAndPan="magnify" viewBox="0 0 375 374.999991" height="500" preserveAspectRatio="xMidYMid meet" version="1.0"><defs><clipPath id="3160a823fa"><path d="M 56 132 L 66 132 L 66 157.4375 L 56 157.4375 Z M 56 132 " clip-rule="nonzero"/></clipPath><clipPath id="c748645aa5"><path d="M 278 73 L 329 73 L 329 142 L 278 142 Z M 278 73 " clip-rule="nonzero"/></clipPath><clipPath id="5857bc5ff2"><path d="M 266.632812 62.214844 L 317.738281 52.984375 L 335.308594 150.246094 L 284.203125 159.480469 Z M 266.632812 62.214844 " clip-rule="nonzero"/></clipPath><clipPath id="8e6477e7f8"><path d="M 168.050781 80.023438 L 318.070312 52.921875 L 350.53125 232.613281 L 200.511719 259.714844 Z M 168.050781 80.023438 " clip-rule="nonzero"/></clipPath><clipPath id="b5e6c032cc"><path d="M 290 77 L 303 77 L 303 108 L 290 108 Z M 290 77 " clip-rule="nonzero"/></clipPath><clipPath id="c4888126ee"><path d="M 266.632812 62.214844 L 317.738281 52.984375 L 335.308594 150.246094 L 284.203125 159.480469 Z M 266.632812 62.214844 " clip-rule="nonzero"/></clipPath><clipPath id="0156193e41"><path d="M 168.050781 80.023438 L 318.070312 52.921875 L 350.53125 232.613281 L 200.511719 259.714844 Z M 168.050781 80.023438 " clip-rule="nonzero"/></clipPath><clipPath id="dff45bf7a9"><path d="M 301 75 L 314 75 L 314 106 L 301 106 Z M 301 75 " clip-rule="nonzero"/></clipPath><clipPath id="da4826a9d0"><path d="M 266.632812 62.214844 L 317.738281 52.984375 L 335.308594 150.246094 L 284.203125 159.480469 Z M 266.632812 62.214844 " clip-rule="nonzero"/></clipPath><clipPath id="ac61c0fcde"><path d="M 168.050781 80.023438 L 318.070312 52.921875 L 350.53125 232.613281 L 200.511719 259.714844 Z M 168.050781 80.023438 " clip-rule="nonzero"/></clipPath><clipPath id="db81ca3eda"><path d="M 303 154 L 336 154 L 336 160 L 303 160 Z M 303 154 " clip-rule="nonzero"/></clipPath><clipPath id="6ead20d220"><path d="M 266.632812 62.214844 L 317.738281 52.984375 L 335.308594 150.246094 L 284.203125 159.480469 Z M 266.632812 62.214844 " clip-rule="nonzero"/></clipPath><clipPath id="92f1f13fd0"><path d="M 168.050781 80.023438 L 318.070312 52.921875 L 350.53125 232.613281 L 200.511719 259.714844 Z M 168.050781 80.023438 " clip-rule="nonzero"/></clipPath><clipPath id="ad6c7b9a7e"><path d="M 305 132 L 319 132 L 319 160 L 305 160 Z M 305 132 " clip-rule="nonzero"/></clipPath><clipPath id="39e86fabed"><path d="M 266.632812 62.214844 L 317.738281 52.984375 L 335.308594 150.246094 L 284.203125 159.480469 Z M 266.632812 62.214844 " clip-rule="nonzero"/></clipPath><clipPath id="2ac81e4ca9"><path d="M 168.050781 80.023438 L 318.070312 52.921875 L 350.53125 232.613281 L 200.511719 259.714844 Z M 168.050781 80.023438 " clip-rule="nonzero"/></clipPath></defs><path fill="#ffffff" d="M 50.121094 309.691406 C 50.464844 304.824219 51.71875 297.8125 57.707031 299.03125 C 62.269531 299.964844 63.660156 305.199219 64.238281 309.691406 Z M 46.40625 229.410156 C 46.695312 223.230469 46.984375 217.050781 47.273438 210.871094 C 48.125 210.53125 48.976562 210.195312 49.828125 209.855469 C 50.648438 209.527344 51.214844 208.78125 50.960938 207.859375 C 50.746094 207.074219 49.789062 206.390625 48.960938 206.726562 C 48.457031 206.929688 47.949219 207.132812 47.441406 207.332031 C 47.453125 207.023438 47.46875 206.707031 47.484375 206.390625 C 49.558594 204.886719 52.042969 204.289062 54.703125 204.625 C 56.777344 204.886719 56.753906 201.640625 54.703125 201.382812 C 52.253906 201.066406 49.828125 201.496094 47.667969 202.519531 C 47.765625 200.402344 47.863281 198.285156 47.964844 196.167969 C 56.609375 194.632812 65.183594 194.859375 73.722656 196.839844 C 73.835938 207.257812 73.707031 217.691406 73.746094 228.097656 C 73.859375 255.292969 73.96875 282.496094 74.074219 309.691406 L 70.738281 309.691406 C 70.265625 305.519531 69.375 301.339844 66.765625 297.988281 C 63.9375 294.367188 58.90625 291.195312 54.097656 292.617188 C 49.105469 294.097656 46.214844 297.851562 44.609375 302.660156 C 43.871094 304.863281 43.730469 307.351562 43.613281 309.691406 L 42.652344 309.691406 C 43.902344 282.929688 45.15625 256.171875 46.40625 229.410156 Z M 58.773438 162.1875 C 71.425781 161.28125 73.324219 179.480469 73.5625 188.03125 C 73.582031 188.746094 73.582031 189.453125 73.601562 190.164062 C 65.214844 188.421875 56.746094 188.226562 48.273438 189.539062 C 48.296875 189.066406 48.320312 188.59375 48.339844 188.117188 C 48.691406 180.613281 47.953125 162.949219 58.773438 162.1875 Z M 123.847656 309.691406 C 122.15625 300.769531 120.65625 285.578125 133.167969 285.003906 C 139.609375 284.714844 140.21875 293.496094 140.816406 297.933594 C 141.339844 301.851562 141.863281 305.765625 142.386719 309.691406 Z M 163.820312 309.691406 C 162.480469 296.546875 162.683594 283.410156 167.316406 270.820312 C 172.046875 257.953125 184.148438 247.25 197.980469 245.871094 C 212.132812 244.46875 223.039062 255.679688 228.746094 267.367188 C 234.996094 280.195312 234.445312 295.644531 233.925781 309.691406 Z M 113.878906 309.488281 C 110.691406 290.261719 107.578125 270.375 107.933594 250.75 C 109.796875 250.359375 111.660156 249.964844 113.523438 249.582031 C 115.570312 249.144531 114.707031 246.015625 112.664062 246.445312 C 111.117188 246.777344 109.574219 247.097656 108.027344 247.421875 C 108.109375 245.460938 108.214844 243.503906 108.367188 241.550781 C 114.300781 239.105469 120.511719 237.460938 127 236.664062 C 129.050781 236.40625 129.074219 233.160156 127 233.417969 C 120.644531 234.203125 114.554688 235.710938 108.703125 237.949219 C 109.023438 234.851562 109.453125 231.773438 110.003906 228.703125 C 162.292969 223.082031 215.015625 223.128906 267.285156 228.863281 C 272.332031 250.566406 271.585938 273.675781 269.753906 296.0625 C 268.164062 289.484375 264.195312 284.214844 255.746094 283.539062 C 242.535156 282.476562 242.445312 299.039062 243.558594 309.691406 L 240.410156 309.691406 C 240.933594 292.910156 240.734375 275.828125 232.59375 260.671875 C 225.730469 247.882812 212.722656 238.828125 197.980469 239.382812 C 183.503906 239.933594 170.949219 250.558594 164.03125 262.589844 C 155.972656 276.605469 155.6875 293.894531 157.324219 309.691406 L 148.972656 309.691406 C 147.820312 297.230469 147.378906 277.871094 131.527344 278.589844 C 115.765625 279.304688 115.4375 297.730469 117.300781 309.691406 L 113.902344 309.691406 C 113.890625 309.621094 113.890625 309.550781 113.878906 309.488281 Z M 185.101562 158.84375 C 218.546875 157.207031 246.179688 177.78125 259.902344 207.203125 C 262.183594 212.078125 264.03125 217.082031 265.527344 222.175781 C 214.296875 216.6875 162.632812 216.648438 111.386719 222.070312 C 112.214844 218.605469 113.207031 215.167969 114.390625 211.761719 C 124.785156 181.855469 153.578125 160.386719 185.101562 158.84375 Z M 249.964844 309.691406 C 248.941406 302.429688 248 290.488281 255.746094 290.027344 C 265.207031 289.472656 264.761719 302.875 263.980469 309.691406 Z M 312.28125 309.691406 C 311.359375 304.871094 314.890625 300.066406 320.609375 300.875 C 325.15625 301.527344 326.871094 305.484375 327.539062 309.691406 Z M 303.257812 233.425781 C 303.300781 221.015625 303.339844 208.597656 303.410156 196.1875 C 311.894531 195.839844 320.386719 195.484375 328.875 195.140625 C 329.410156 206.625 329.949219 218.113281 330.484375 229.609375 C 331.734375 256.296875 332.980469 282.996094 334.230469 309.691406 L 333.902344 309.691406 C 332.613281 301.742188 328.824219 294.722656 319.261719 294.296875 C 310.449219 293.90625 305.03125 301.957031 305.746094 309.691406 L 302.953125 309.691406 C 303.054688 284.265625 303.15625 258.84375 303.257812 233.425781 Z M 318.238281 164.960938 C 328.164062 164.472656 328.261719 182.039062 328.550781 188.316406 C 328.558594 188.429688 328.5625 188.542969 328.570312 188.660156 C 320.210938 189.003906 311.851562 189.351562 303.492188 189.691406 C 303.851562 179.5 306.039062 165.5625 318.238281 164.960938 Z M 347.214844 309.691406 C 345.761719 278.691406 344.316406 247.699219 342.863281 216.703125 C 342.191406 202.429688 342.578125 187.664062 340.027344 173.574219 C 337.933594 162.035156 330.339844 152.839844 318.238281 151.980469 C 317.089844 151.894531 315.96875 151.949219 314.871094 152.070312 C 313.96875 146.625 313.058594 141.183594 312.148438 135.730469 C 311.457031 131.609375 305.210938 133.367188 305.886719 137.460938 C 306.800781 142.925781 307.710938 148.398438 308.628906 153.863281 C 301.457031 157.269531 296.054688 164.65625 293.242188 171.703125 C 288.003906 184.796875 290.398438 201.847656 290.339844 215.605469 C 290.222656 246.964844 290.09375 278.324219 289.96875 309.691406 L 281.515625 309.691406 C 284.851562 272.757812 286.523438 235.332031 271.121094 200.648438 C 257.066406 169.023438 227.601562 148.46875 193.195312 145.960938 C 191.320312 145.820312 189.449219 145.765625 187.59375 145.757812 C 187.476562 141.601562 187.371094 137.449219 187.257812 133.296875 C 187.148438 129.121094 180.652344 129.109375 180.769531 133.296875 C 180.882812 137.53125 180.988281 141.765625 181.101562 145.996094 C 152.464844 148.234375 126.09375 165.523438 110.710938 189.691406 C 91.207031 220.335938 93.53125 259.015625 98.300781 293.402344 C 99.058594 298.847656 99.9375 304.269531 100.828125 309.691406 L 87.0625 309.691406 C 86.933594 278.25 86.808594 246.8125 86.683594 215.371094 C 86.601562 194.886719 90.613281 157.800781 66.234375 150.457031 C 66.039062 146.0625 65.84375 141.65625 65.648438 137.257812 C 65.464844 133.09375 58.96875 133.070312 59.15625 137.257812 C 59.332031 141.269531 59.511719 145.277344 59.6875 149.285156 C 59.378906 149.265625 59.089844 149.214844 58.773438 149.203125 C 47.230469 148.632812 39.988281 159.261719 37.367188 169.082031 C 33.804688 182.433594 34.914062 197.652344 34.269531 211.347656 C 32.738281 244.121094 31.207031 276.910156 29.667969 309.691406 L 8.957031 309.691406 L 8.957031 322.671875 L 367.1875 322.671875 L 367.1875 309.691406 L 347.214844 309.691406 " fill-opacity="1" fill-rule="nonzero"/><path fill="#ffffff" d="M 134.992188 202.652344 C 138.394531 194.417969 144.542969 187.898438 152.441406 183.828125 C 154.296875 182.867188 152.65625 180.070312 150.796875 181.023438 C 142.101562 185.507812 135.59375 192.761719 131.867188 201.785156 C 131.070312 203.726562 134.210938 204.558594 134.992188 202.652344 " fill-opacity="1" fill-rule="nonzero"/><path fill="#ffffff" d="M 159.246094 178.761719 L 159.910156 178.097656 C 161.386719 176.617188 159.09375 174.324219 157.613281 175.804688 C 157.394531 176.023438 157.167969 176.246094 156.953125 176.46875 C 155.464844 177.945312 157.761719 180.238281 159.246094 178.761719 " fill-opacity="1" fill-rule="nonzero"/><path fill="#ffffff" d="M 53.65625 179.089844 C 53.765625 176.371094 55.222656 173.988281 57.558594 172.605469 C 59.359375 171.539062 57.726562 168.734375 55.921875 169.800781 C 52.585938 171.777344 50.566406 175.222656 50.410156 179.089844 C 50.324219 181.1875 53.570312 181.175781 53.65625 179.089844 " fill-opacity="1" fill-rule="nonzero"/><path fill="#ffffff" d="M 64.957031 170.464844 L 64.957031 169.800781 C 64.957031 167.710938 61.714844 167.710938 61.714844 169.800781 L 61.714844 170.464844 C 61.714844 172.554688 64.957031 172.554688 64.957031 170.464844 " fill-opacity="1" fill-rule="nonzero"/><path fill="#ffffff" d="M 310.761719 182.414062 C 310.824219 179.175781 312.277344 176.390625 314.789062 174.367188 C 316.410156 173.0625 314.105469 170.78125 312.488281 172.074219 C 309.339844 174.617188 307.589844 178.386719 307.519531 182.414062 C 307.476562 184.511719 310.722656 184.503906 310.761719 182.414062 " fill-opacity="1" fill-rule="nonzero"/><path fill="#ffffff" d="M 321.148438 170.464844 L 321.148438 169.800781 C 321.148438 167.710938 317.910156 167.710938 317.910156 169.800781 L 317.910156 170.464844 C 317.910156 172.554688 321.148438 172.554688 321.148438 170.464844 " fill-opacity="1" fill-rule="nonzero"/><g clip-path="url(#3160a823fa)"><path fill="#ffffff" d="M 61.226562 168.125 C 58.703125 168.125 56.660156 166.082031 56.660156 163.5625 L 56.660156 136.972656 C 56.660156 134.449219 58.703125 132.40625 61.226562 132.40625 C 63.75 132.40625 65.796875 134.449219 65.796875 136.972656 L 65.796875 163.558594 C 65.796875 166.082031 63.75 168.125 61.226562 168.125 Z M 61.226562 168.125 " fill-opacity="1" fill-rule="nonzero"/></g><path fill="#ffffff" d="M 61.230469 141.542969 C 46.449219 141.542969 34.421875 125.402344 34.421875 105.574219 C 34.421875 85.746094 46.453125 69.617188 61.230469 69.617188 C 76.011719 69.617188 88.035156 85.746094 88.035156 105.574219 C 88.035156 125.402344 76.011719 141.542969 61.230469 141.542969 Z M 61.230469 78.753906 C 51.65625 78.753906 43.558594 91.035156 43.558594 105.574219 C 43.558594 120.117188 51.65625 132.40625 61.230469 132.40625 C 70.808594 132.40625 78.898438 120.117188 78.898438 105.574219 C 78.898438 91.035156 70.808594 78.753906 61.230469 78.753906 Z M 61.230469 78.753906 " fill-opacity="1" fill-rule="nonzero"/><g clip-path="url(#c748645aa5)"><g clip-path="url(#5857bc5ff2)"><g clip-path="url(#8e6477e7f8)"><path fill="#ffffff" d="M 313.195312 139.816406 L 308.191406 140.722656 C 302.699219 141.714844 297.875 140.714844 293.847656 137.742188 C 285.898438 131.871094 284.425781 120.316406 284.367188 119.828125 L 278.070312 85.019531 C 277.667969 82.796875 279.144531 80.675781 281.363281 80.273438 C 283.582031 79.871094 285.707031 81.34375 286.109375 83.566406 L 292.4375 118.613281 C 292.488281 118.925781 293.617188 127.4375 298.722656 131.1875 C 300.886719 132.773438 303.511719 133.265625 306.738281 132.683594 L 311.738281 131.78125 C 314.976562 131.195312 317.265625 129.8125 318.738281 127.550781 C 322.175781 122.277344 320.28125 113.917969 320.261719 113.828125 L 313.878906 78.550781 C 313.480469 76.328125 314.953125 74.203125 317.175781 73.804688 C 319.394531 73.402344 321.519531 74.875 321.917969 77.097656 L 328.25 112.144531 C 328.316406 112.386719 330.980469 123.726562 325.585938 132.007812 C 322.859375 136.199219 318.6875 138.824219 313.195312 139.816406 Z M 313.195312 139.816406 " fill-opacity="1" fill-rule="nonzero"/></g></g></g><g clip-path="url(#b5e6c032cc)"><g clip-path="url(#c4888126ee)"><g clip-path="url(#0156193e41)"><path fill="#ffffff" d="M 299.042969 107.839844 C 296.824219 108.238281 294.699219 106.765625 294.296875 104.542969 L 290.347656 82.6875 C 289.949219 80.464844 291.421875 78.339844 293.640625 77.941406 C 295.863281 77.539062 297.988281 79.011719 298.386719 81.234375 L 302.335938 103.089844 C 302.738281 105.3125 301.261719 107.4375 299.042969 107.839844 Z M 299.042969 107.839844 " fill-opacity="1" fill-rule="nonzero"/></g></g></g><g clip-path="url(#dff45bf7a9)"><g clip-path="url(#da4826a9d0)"><g clip-path="url(#ac61c0fcde)"><path fill="#ffffff" d="M 310.261719 105.8125 C 308.042969 106.210938 305.917969 104.738281 305.515625 102.515625 L 301.570312 80.660156 C 301.167969 78.4375 302.640625 76.316406 304.859375 75.914062 C 307.082031 75.511719 309.207031 76.984375 309.605469 79.207031 L 313.554688 101.0625 C 313.957031 103.289062 312.480469 105.410156 310.261719 105.8125 Z M 310.261719 105.8125 " fill-opacity="1" fill-rule="nonzero"/></g></g></g><g clip-path="url(#db81ca3eda)"><g clip-path="url(#6ead20d220)"><g clip-path="url(#92f1f13fd0)"><path fill="#ffffff" d="M 329.175781 235.992188 L 326.863281 236.410156 C 321.679688 237.347656 316.699219 233.894531 315.765625 228.710938 L 303.632812 161.550781 C 303.230469 159.328125 304.707031 157.207031 306.925781 156.804688 L 320.003906 154.441406 C 322.222656 154.042969 324.347656 155.515625 324.75 157.738281 L 336.878906 224.894531 C 337.816406 230.078125 334.363281 235.058594 329.175781 235.992188 Z M 312.394531 164.113281 L 323.800781 227.253906 C 323.9375 228.003906 324.660156 228.503906 325.410156 228.371094 L 327.726562 227.953125 C 328.476562 227.816406 328.980469 227.09375 328.84375 226.34375 L 317.4375 163.203125 Z M 312.394531 164.113281 " fill-opacity="1" fill-rule="nonzero"/></g></g></g><g clip-path="url(#ad6c7b9a7e)"><g clip-path="url(#39e86fabed)"><g clip-path="url(#2ac81e4ca9)"><path fill="#ffffff" d="M 314.917969 163.660156 C 312.699219 164.058594 310.574219 162.585938 310.171875 160.371094 L 305.945312 136.972656 C 305.542969 134.753906 307.019531 132.632812 309.238281 132.230469 C 311.460938 131.832031 313.582031 133.304688 313.984375 135.523438 L 318.210938 158.917969 C 318.613281 161.136719 317.136719 163.257812 314.917969 163.660156 Z M 314.917969 163.660156 " fill-opacity="1" fill-rule="nonzero"/></g></g></g></svg>