<?xml version="1.0" encoding="UTF-8"?>
<svg id="Layer_1" data-name="Layer 1" xmlns="http://www.w3.org/2000/svg" xmlns:xlink="http://www.w3.org/1999/xlink" viewBox="0 0 477.64 337.41">
  <defs>
    <style>
      .cls-1 {
        fill: #fff;
      }

      .cls-2, .cls-3 {
        fill: none;
      }

      .cls-3 {
        clip-path: url(#clippath);
      }
    </style>
    <clipPath id="clippath">
      <rect class="cls-2" x="62.72" y="83.18" width="13.33" height="33.92"/>
    </clipPath>
  </defs>
  <path d="m451.01,320.11v-.02c-1.93-41.33-3.85-82.66-5.79-123.98-.9-19.03-.38-38.72-3.78-57.51-2.79-15.39-12.92-27.65-29.05-28.79-.58-.04-1.16-.06-1.73-.05-.94.01-1.86.07-2.76.17-.9-5.42-1.8-10.83-2.7-16.25-.31-1.85-.62-3.69-.93-5.54-.83-4.98-7.76-3.52-8.37.87-.01.01-.01.02,0,.03,0,0-.01,0,0,.01-.07.45-.06.89.02,1.4l.78,4.68c.96,5.73,1.91,11.46,2.88,17.19-9.56,4.54-16.77,14.39-20.52,23.79-6.98,17.46-3.79,40.19-3.87,58.54-.16,41.81-.33,83.63-.49,125.45h-11.27c4.45-49.24,6.68-99.15-13.86-145.39-18.74-42.17-58.03-69.57-103.9-72.92-2.5-.19-4.99-.26-7.47-.27-.16-5.54-.3-11.08-.45-16.61-.15-5.57-8.81-5.58-8.65,0,.15,5.65.29,11.29.44,16.93-38.18,2.98-73.34,26.04-93.85,58.26-26.01,40.86-22.91,92.43-16.55,138.28,1.01,7.26,2.18,14.49,3.37,21.72h-18.35c-.17-41.92-.34-83.84-.51-125.76-.11-27.31,5.24-76.76-27.27-86.55-.11-2.48-.22-4.96-.33-7.45-.08-1.71-.15-3.42-.23-5.14-.07-1.67-.15-3.34-.22-5.01-.24-5.55-8.91-5.58-8.66,0,.08,1.86.16,3.73.25,5.59.15,3.48.3,6.96.46,10.45-.41-.03-.8-.09-1.22-.11-1.28-.06-2.52-.02-3.71.11-13.24,1.47-21.63,14.39-24.83,26.4-4.75,17.8-3.27,38.09-4.13,56.35-2.04,43.7-4.08,87.42-6.14,131.13H0v17.31h477.64v-17.31h-26.63ZM52.52,158c.47-10.01-.52-33.56,13.91-34.57,16.87-1.21,19.4,23.06,19.72,34.46.03.95.03,1.9.05,2.84-11.18-2.32-22.47-2.58-33.77-.83.03-.63.06-1.26.09-1.9Zm2.37,162.1c.46-6.49,2.13-15.84,10.11-14.21,6.08,1.24,7.94,8.22,8.71,14.21h-18.82Zm27.5.02c-.63-5.56-1.82-11.14-5.3-15.6-3.77-4.83-10.48-9.06-16.89-7.16-6.66,1.97-10.51,6.98-12.65,13.39-.98,2.94-1.17,6.26-1.33,9.38h-1.28c1.67-35.68,3.34-71.36,5.01-107.04v-.03s1.15-24.72,1.15-24.72c1.14-.45,2.27-.9,3.41-1.35,1.09-.44,1.85-1.43,1.51-2.66-.29-1.05-1.56-1.96-2.67-1.51-.67.27-1.35.54-2.03.81.02-.41.04-.83.06-1.26,2.77-2.01,6.08-2.8,9.63-2.35,2.77.35,2.73-3.98,0-4.32-3.27-.42-6.5.15-9.38,1.52.13-2.82.26-5.65.4-8.47,11.53-2.05,22.96-1.74,34.34.9.15,13.89-.02,27.8.03,41.68.15,36.26.3,72.53.44,108.79h-4.45Zm58.2-130.59c13.86-39.88,52.25-68.5,94.28-70.56,44.59-2.18,81.44,25.25,99.73,64.48,3.04,6.5,5.51,13.17,7.5,19.96-68.31-7.32-137.19-7.37-205.52-.14,1.1-4.62,2.43-9.2,4.01-13.74Zm12.61,130.57c-2.26-11.9-4.26-32.15,12.43-32.92,8.59-.39,9.4,11.32,10.2,17.24.7,5.22,1.4,10.44,2.09,15.68h-24.72Zm146.78-.01h-93.48c-1.79-17.52-1.52-35.03,4.66-51.82,6.31-17.16,22.44-31.43,40.89-33.27,18.87-1.87,33.41,13.08,41.02,28.66,8.33,17.1,7.6,37.7,6.91,56.43Zm40.06.01h-18.69c-1.36-9.68-2.62-25.6,7.71-26.22,12.61-.74,12.02,17.13,10.98,26.22Zm7.68-18.19c-2.12-8.77-7.41-15.8-18.68-16.7-17.61-1.42-17.73,20.67-16.25,34.87h-4.2c.7-22.38.43-45.15-10.42-65.36-9.15-17.05-26.49-29.13-46.15-28.39-19.3.73-36.04,14.9-45.27,30.94-10.74,18.69-11.13,41.74-8.94,62.8h-11.14c-1.54-16.61-2.13-42.43-23.26-41.47-21.02.95-21.45,25.52-18.97,41.47h-4.53c-.02-.09-.02-.19-.03-.27l.03.03c-4.25-25.64-8.4-52.15-7.93-78.32,2.48-.52,4.97-1.05,7.45-1.56,2.73-.58,1.58-4.76-1.15-4.18-2.06.44-4.12.87-6.18,1.3.11-2.61.25-5.22.45-7.83,7.91-3.26,16.19-5.45,24.84-6.52,2.73-.34,2.77-4.67,0-4.33-8.47,1.05-16.59,3.06-24.4,6.04.43-4.13,1-8.23,1.73-12.33,69.72-7.49,140.02-7.43,209.71.21,6.73,28.94,5.73,59.75,3.29,89.6Zm64.66-174.78h0c13.23-.66,13.36,22.76,13.75,31.13.01.15.02.3.03.46-11.15.46-22.29.92-33.44,1.38.48-13.59,3.4-32.17,19.66-32.97Zm-7.94,192.97c-1.23-6.43,3.48-12.83,11.1-11.76,6.06.87,8.35,6.15,9.24,11.76h-20.34Zm28.82,0c-1.72-10.6-6.77-19.96-19.52-20.53-11.75-.52-18.97,10.21-18.02,20.53h-3.72c.14-33.9.27-67.8.41-101.69.06-16.55.11-33.1.2-49.65,11.31-.46,22.64-.94,33.95-1.4.71,15.31,1.43,30.63,2.15,45.96,1.67,35.58,3.33,71.18,4.99,106.78h-.44Z"/>
  <path class="cls-1" d="m368.93,32.65s8.08,4.07,12.13-1.63,5.56-1.15,5.56-1.15c0,0,5.42,2.88,9.28-1.72s5.12-1.31,5.12-1.31c0,0,7.76,2.02,11.84-2.78s7.61,31.58,7.61,31.58v24l-14.23,10.86h-19.62l-8.59-11.62-9.09-26.53-3.03-18.95,3.03-.76Z"/>
  <path class="cls-1" d="m424.78,320.1h-20.34c-1.23-6.43,3.48-12.83,11.1-11.76,6.06.87,8.35,6.15,9.24,11.76Z"/>
  <path class="cls-1" d="m426.13,158.26c-.39-8.37-.52-31.79-13.75-31.14h0c-16.26.81-19.18,19.39-19.66,32.98,11.15-.46,22.29-.92,33.44-1.38,0-.16-.02-.31-.03-.46Zm-18.35-18.59c-3.35,2.7-5.29,6.41-5.37,10.73h0c-.05,2.79-4.38,2.8-4.32,0,.1-5.37,2.43-10.4,6.63-13.79,2.16-1.72,5.23,1.32,3.07,3.06Zm8.48-5.21c0,2.79-4.32,2.79-4.32,0v-.89c0-2.79,4.32-2.79,4.32,0v.89Z"/>
  <path class="cls-1" d="m433.7,320.1h-.44c-1.72-10.6-6.77-19.96-19.52-20.53-11.75-.52-18.97,10.21-18.02,20.53h-3.72c.14-33.9.27-67.8.41-101.69.06-16.55.11-33.1.2-49.65,11.31-.46,22.64-.94,33.95-1.4.71,15.31,1.43,30.63,2.15,45.96,1.67,35.58,3.33,71.18,4.99,106.78Z"/>
  <path class="cls-1" d="m334.6,183.45c-18.29-39.23-55.14-66.66-99.73-64.48-42.03,2.06-80.42,30.68-94.28,70.56-1.58,4.54-2.91,9.12-4.01,13.74,68.33-7.23,137.21-7.18,205.52.14-1.99-6.79-4.46-13.46-7.5-19.96Zm-143.28-31.17c-10.54,5.43-18.73,14.12-23.27,25.1h.01c-1.04,2.54-5.23,1.43-4.17-1.16,4.97-12.03,13.65-21.7,25.24-27.68,2.48-1.27,4.66,2.46,2.19,3.74Zm9.96-7.64l-.88.89c-1.98,1.97-5.04-1.09-3.06-3.06.29-.3.59-.6.88-.89,1.97-1.97,5.03,1.09,3.06,3.06Z"/>
  <path class="cls-1" d="m340.04,320.1h-18.69c-1.36-9.68-2.62-25.6,7.71-26.22,12.61-.74,12.02,17.13,10.98,26.22Z"/>
  <path class="cls-1" d="m299.98,320.09h-93.48c-1.79-17.52-1.52-35.03,4.66-51.82,6.31-17.16,22.44-31.43,40.89-33.27,18.87-1.87,33.41,13.08,41.02,28.66,8.33,17.1,7.6,37.7,6.91,56.43Z"/>
  <path class="cls-1" d="m177.92,320.1h-24.72c-2.26-11.9-4.26-32.15,12.43-32.92,8.59-.39,9.4,11.32,10.2,17.24.7,5.22,1.4,10.44,2.09,15.68Z"/>
  <path class="cls-1" d="m347.72,301.91c-2.12-8.77-7.41-15.8-18.68-16.7-17.61-1.42-17.73,20.67-16.25,34.87h-4.2c.7-22.38.43-45.15-10.42-65.36-9.15-17.05-26.49-29.13-46.15-28.39-19.3.73-36.04,14.9-45.27,30.94-10.74,18.69-11.13,41.74-8.94,62.8h-11.14c-1.54-16.61-2.13-42.43-23.26-41.47-21.02.95-21.45,25.52-18.97,41.47h-4.53c-.02-.09-.02-.19-.03-.27l.03.03c-4.25-25.64-8.4-52.15-7.93-78.32,2.48-.52,4.97-1.05,7.45-1.56,2.73-.58,1.58-4.76-1.15-4.18-2.06.44-4.12.87-6.18,1.3.11-2.61.25-5.22.45-7.83,7.91-3.26,16.19-5.45,24.84-6.52,2.73-.34,2.77-4.67,0-4.33-8.47,1.05-16.59,3.06-24.4,6.04.43-4.13,1-8.23,1.73-12.33,69.72-7.49,140.02-7.43,209.71.21,6.73,28.94,5.73,59.75,3.29,89.6Z"/>
  <path class="cls-1" d="m73.71,320.1h-18.82c.46-6.49,2.13-15.84,10.11-14.21,6.08,1.24,7.94,8.22,8.71,14.21Z"/>
  <path class="cls-1" d="m86.84,320.12h-4.45c-.63-5.56-1.82-11.14-5.3-15.6-3.77-4.83-10.48-9.06-16.89-7.16-6.66,1.97-10.51,6.98-12.65,13.39-.98,2.94-1.17,6.26-1.33,9.38h-1.28c1.67-35.68,3.34-71.36,5.01-107.04v-.03s1.15-24.72,1.15-24.72c1.14-.45,2.27-.9,3.41-1.35,1.09-.44,1.85-1.43,1.51-2.66-.29-1.05-1.56-1.96-2.67-1.51-.67.27-1.35.54-2.03.81.02-.41.04-.83.06-1.26,2.77-2.01,6.08-2.8,9.63-2.35,2.77.35,2.73-3.98,0-4.32-3.27-.42-6.5.15-9.38,1.52.13-2.82.26-5.65.4-8.47,11.53-2.05,22.96-1.74,34.34.9.15,13.89-.02,27.8.03,41.68.15,36.26.3,72.53.44,108.79Z"/>
  <path class="cls-1" d="m86.15,157.89c-.32-11.4-2.85-35.67-19.72-34.46-14.43,1.01-13.44,24.56-13.91,34.57-.03.64-.06,1.27-.09,1.9,11.3-1.75,22.59-1.49,33.77.83-.02-.94-.02-1.89-.05-2.84Zm-21.35-20.58c-3.11,1.85-5.05,5.02-5.2,8.65-.12,2.78-4.44,2.8-4.33,0,.21-5.16,2.9-9.75,7.35-12.39,2.4-1.42,4.58,2.32,2.18,3.74Zm9.87-2.85c0,2.79-4.32,2.79-4.32,0v-.89c0-2.79,4.32-2.79,4.32,0v.89Z"/>
  <path d="m191.32,152.28c-10.54,5.43-18.73,14.12-23.27,25.1h.01c-1.04,2.54-5.23,1.43-4.17-1.16,4.97-12.03,13.65-21.7,25.24-27.68,2.48-1.27,4.66,2.46,2.19,3.74Z"/>
  <path d="m201.28,144.64l-.88.89c-1.98,1.97-5.04-1.09-3.06-3.06.29-.3.59-.6.88-.89,1.97-1.97,5.03,1.09,3.06,3.06Z"/>
  <path d="m64.8,137.31c-3.11,1.85-5.05,5.02-5.2,8.65-.12,2.78-4.44,2.8-4.33,0,.21-5.16,2.9-9.75,7.35-12.39,2.4-1.42,4.58,2.32,2.18,3.74Z"/>
  <path d="m74.67,133.57v.89c0,2.79-4.32,2.79-4.32,0v-.89c0-2.79,4.32-2.79,4.32,0Z"/>
  <path d="m407.78,139.67c-3.35,2.7-5.29,6.41-5.37,10.73h0c-.05,2.79-4.38,2.8-4.32,0,.1-5.37,2.43-10.4,6.63-13.79,2.16-1.72,5.23,1.32,3.07,3.06Z"/>
  <path d="m416.26,133.57v.89c0,2.79-4.32,2.79-4.32,0v-.89c0-2.79,4.32-2.79,4.32,0Z"/>
  <g>
    <rect x="62.72" y="83.18" width="13.33" height="33.92"/>
    <g class="cls-3">
      <path class="cls-2" d="m69.69,131.34c-3.36,0-6.09-2.72-6.09-6.08v-35.45c0-3.36,2.72-6.09,6.09-6.09s6.09,2.72,6.09,6.09v35.45c0,3.36-2.73,6.09-6.09,6.09h0Z"/>
    </g>
  </g>
  <path d="m69.7,0C49.99,0,33.96,21.5,33.96,47.94c0,23.24,12.38,42.68,28.76,47.04,1.46.39,2.95.66,4.47.8.83.08,1.67.12,2.51.12,2.09,0,4.13-.24,6.12-.7.08-.02.15-.04.23-.06,16.69-4.03,29.39-23.67,29.39-47.2C105.44,21.51,89.41,0,69.7,0Zm3.99,83.18c-1.3.35-2.63.54-3.99.54s-2.69-.19-3.99-.54c-10.95-2.98-19.57-17.92-19.57-35.24,0-19.38,10.79-35.76,23.56-35.76s23.56,16.37,23.56,35.76c0,17.33-8.62,32.26-19.57,35.24Z"/>
  <path class="cls-1" d="m93.26,47.94c0,17.33-8.62,32.26-19.57,35.24h-7.98c-10.95-2.98-19.57-17.92-19.57-35.24,0-19.38,10.79-35.76,23.56-35.76s23.56,16.37,23.56,35.76Z"/>
  <path d="m405.65,93.6l-6.67,1.21c-7.32,1.32-13.76-.01-19.13-3.97-10.6-7.83-12.56-23.23-12.64-23.89l-8.4-46.41c-.54-2.96,1.43-5.79,4.39-6.33s5.79,1.43,6.33,4.39l8.44,46.73c.07.42,1.57,11.77,8.38,16.77,2.89,2.11,6.39,2.77,10.69,1.99l6.67-1.2c4.32-.78,7.37-2.63,9.33-5.64,4.58-7.03,2.06-18.18,2.03-18.3l-8.51-47.04c-.53-2.96,1.43-5.8,4.4-6.33,2.96-.54,5.79,1.43,6.32,4.39l8.44,46.73c.09.32,3.64,15.44-3.55,26.48-3.64,5.59-9.2,9.09-16.52,10.41h0Z"/>
  <path d="m386.78,50.96c-2.96.53-5.79-1.43-6.33-4.4l-5.27-29.14c-.53-2.96,1.43-5.8,4.39-6.33,2.96-.54,5.8,1.43,6.33,4.39l5.27,29.14c.54,2.96-1.43,5.8-4.39,6.33h0Z"/>
  <path d="m401.74,48.26c-2.96.53-5.79-1.43-6.33-4.4l-5.26-29.14c-.54-2.96,1.43-5.79,4.39-6.33,2.96-.54,5.8,1.43,6.33,4.39l5.27,29.14c.54,2.97-1.43,5.8-4.39,6.33h0Z"/>
  <path d="m407.95,125.39c-2.96.53-5.79-1.43-6.33-4.39l-5.64-31.2c-.54-2.96,1.43-5.79,4.39-6.32,2.96-.53,5.79,1.43,6.33,4.39l5.64,31.19c.54,2.96-1.43,5.79-4.39,6.32h0Z"/>
</svg>