<?xml version="1.0" encoding="UTF-8"?>
<svg id="Layer_1" data-name="Layer 1" xmlns="http://www.w3.org/2000/svg" xmlns:xlink="http://www.w3.org/1999/xlink" viewBox="0 0 477.64 337.41">
  <defs>
    <style>
      .cls-1 {
        clip-path: url(#clippath);
        fill: none;
      }
    </style>
    <clipPath id="clippath">
      <rect x="62.72" y="83.18" width="13.33" height="33.92"/>
    </clipPath>
  </defs>
  <path d="m54.89,320.1c.46-6.49,2.13-15.84,10.11-14.21,6.08,1.24,7.94,8.22,8.71,14.21h-18.82Zm-4.95-107.04l1.16-24.72c1.14-.45,2.27-.9,3.41-1.35,1.09-.44,1.85-1.43,1.51-2.66-.29-1.05-1.56-1.96-2.67-1.51-.67.27-1.35.54-2.03.81.02-.41.04-.83.06-1.26,2.77-2.01,6.08-2.8,9.63-2.35,2.77.35,2.73-3.98,0-4.32-3.27-.42-6.5.15-9.38,1.52.13-2.82.26-5.65.4-8.47,11.53-2.05,22.96-1.74,34.34.9.15,13.89-.02,27.8.03,41.68.15,36.26.3,72.53.44,108.79h-4.45c-.63-5.56-1.82-11.14-5.3-15.6-3.77-4.83-10.48-9.06-16.89-7.16-6.66,1.97-10.51,6.98-12.65,13.39-.98,2.94-1.17,6.26-1.33,9.38h-1.28c1.67-35.68,3.34-71.36,5.01-107.04Zm16.49-89.63c16.87-1.21,19.4,23.06,19.72,34.46.03.95.03,1.9.05,2.84-11.18-2.32-22.47-2.58-33.77-.83.03-.63.06-1.26.09-1.9.47-10.01-.52-33.56,13.91-34.57Zm86.77,196.67c-2.26-11.9-4.26-32.15,12.43-32.92,8.59-.39,9.4,11.32,10.2,17.24.7,5.22,1.4,10.44,2.09,15.68h-24.72Zm53.3,0c-1.79-17.53-1.52-35.04,4.66-51.83,6.31-17.16,22.44-31.43,40.89-33.27,18.87-1.87,33.41,13.08,41.02,28.66,8.33,17.1,7.6,37.7,6.91,56.43h-93.47Zm-66.59-.27c-4.25-25.64-8.4-52.15-7.93-78.32,2.48-.52,4.97-1.05,7.45-1.56,2.73-.58,1.58-4.76-1.15-4.18-2.06.44-4.12.87-6.18,1.3.11-2.61.25-5.22.45-7.83,7.91-3.26,16.19-5.45,24.84-6.52,2.73-.34,2.77-4.67,0-4.33-8.47,1.05-16.59,3.06-24.4,6.04.43-4.13,1-8.23,1.73-12.33,69.72-7.49,140.02-7.43,209.71.21,6.73,28.94,5.73,59.75,3.29,89.6-2.12-8.77-7.41-15.8-18.68-16.7-17.61-1.42-17.73,20.67-16.25,34.87h-4.2c.7-22.38.43-45.15-10.42-65.36-9.15-17.05-26.49-29.13-46.15-28.39-19.3.73-36.04,14.9-45.27,30.94-10.74,18.69-11.13,41.74-8.94,62.8h-11.14c-1.54-16.61-2.13-42.43-23.26-41.47-21.02.95-21.45,25.52-18.97,41.47h-4.53c-.02-.09-.02-.19-.03-.27Zm94.96-200.86c44.59-2.18,81.44,25.25,99.73,64.48,3.04,6.5,5.51,13.17,7.5,19.96-68.31-7.32-137.19-7.37-205.52-.14,1.1-4.62,2.43-9.2,4.01-13.74,13.86-39.88,52.25-68.5,94.28-70.56Zm86.48,201.13c-1.36-9.68-2.62-25.6,7.71-26.22,12.61-.74,12.02,17.13,10.98,26.22h-18.69Zm83.09,0c-1.23-6.43,3.48-12.83,11.1-11.76,6.06.87,8.35,6.15,9.24,11.76h-20.34Zm-12.03-101.69c.06-16.55.11-33.1.2-49.65,11.31-.46,22.64-.94,33.95-1.4.71,15.31,1.43,30.63,2.15,45.96,1.67,35.58,3.33,71.18,4.99,106.78h-.44c-1.72-10.6-6.77-19.96-19.52-20.53-11.75-.52-18.97,10.21-18.02,20.53h-3.72c.14-33.9.27-67.8.41-101.69Zm19.97-91.29c13.23-.65,13.36,22.77,13.75,31.14.01.15.02.3.03.46-11.15.46-22.29.92-33.44,1.38.48-13.59,3.4-32.17,19.66-32.97Zm38.64,192.97c-1.94-41.33-3.86-82.66-5.8-123.98-.9-19.03-.38-38.72-3.78-57.51-2.79-15.39-12.92-27.65-29.05-28.79-1.53-.11-3.03-.04-4.49.12-1.2-7.26-2.42-14.52-3.63-21.79-.92-5.49-9.25-3.15-8.35,2.31,1.22,7.29,2.43,14.58,3.66,21.87-9.56,4.54-16.77,14.39-20.52,23.79-6.98,17.46-3.79,40.19-3.87,58.54-.16,41.81-.33,83.63-.49,125.45h-11.27c4.45-49.24,6.68-99.15-13.86-145.39-18.74-42.17-58.03-69.57-103.9-72.92-2.5-.19-4.99-.26-7.47-.27-.16-5.54-.3-11.08-.45-16.61-.15-5.57-8.81-5.58-8.65,0,.15,5.65.29,11.29.44,16.93-38.18,2.98-73.34,26.04-93.85,58.26-26.01,40.86-22.91,92.43-16.55,138.28,1.01,7.26,2.18,14.49,3.37,21.72h-18.35c-.17-41.92-.34-83.84-.51-125.76-.11-27.31,5.24-76.76-27.27-86.55-.26-5.86-.52-11.73-.78-17.6-.24-5.55-8.91-5.58-8.66,0,.23,5.35.47,10.69.71,16.04-.41-.03-.8-.09-1.22-.11-15.39-.76-25.05,13.41-28.54,26.51-4.75,17.8-3.27,38.09-4.13,56.35-2.04,43.7-4.08,87.42-6.14,131.13H0v17.31h477.64v-17.31h-26.63"/>
  <path d="m168.05,177.38c4.54-10.98,12.73-19.67,23.27-25.1,2.47-1.28.29-5.01-2.19-3.74-11.59,5.98-20.27,15.65-25.24,27.68-1.06,2.59,3.13,3.7,4.17,1.16"/>
  <path d="m200.39,145.53l.89-.89c1.97-1.97-1.09-5.03-3.06-3.06-.29.29-.59.59-.88.89-1.98,1.97,1.08,5.03,3.06,3.06"/>
  <path d="m59.6,145.96c.15-3.63,2.09-6.8,5.2-8.65,2.4-1.42.22-5.16-2.18-3.74-4.45,2.64-7.14,7.23-7.35,12.39-.11,2.8,4.21,2.78,4.33,0"/>
  <path d="m74.67,134.46v-.89c0-2.79-4.32-2.79-4.32,0v.89c0,2.79,4.32,2.79,4.32,0"/>
  <path d="m402.41,150.4c.08-4.32,2.02-8.03,5.37-10.73,2.16-1.74-.91-4.78-3.07-3.06-4.2,3.39-6.53,8.42-6.63,13.79-.06,2.8,4.27,2.79,4.32,0"/>
  <path d="m416.26,134.46v-.89c0-2.79-4.32-2.79-4.32,0v.89c0,2.79,4.32,2.79,4.32,0"/>
  <g>
    <rect x="62.72" y="83.18" width="13.33" height="33.92"/>
    <g class="cls-1">
      <path d="m69.69,131.34c-3.36,0-6.09-2.72-6.09-6.08v-35.45c0-3.36,2.72-6.09,6.09-6.09s6.09,2.72,6.09,6.09v35.45c0,3.36-2.73,6.09-6.09,6.09Z"/>
    </g>
  </g>
  <path d="m69.7,95.9c-19.71,0-35.74-21.52-35.74-47.96S49.99,0,69.7,0s35.74,21.51,35.74,47.94-16.03,47.96-35.74,47.96Zm0-83.72c-12.77,0-23.56,16.38-23.56,35.76s10.8,35.78,23.56,35.78,23.56-16.39,23.56-35.78-10.79-35.76-23.56-35.76Z"/>
  <path d="m405.65,93.6l-6.67,1.21c-7.32,1.32-13.76-.01-19.13-3.97-10.6-7.83-12.56-23.23-12.64-23.89l-8.4-46.41c-.54-2.96,1.43-5.79,4.39-6.33s5.79,1.43,6.33,4.39l8.44,46.73c.07.42,1.57,11.77,8.38,16.77,2.89,2.11,6.39,2.77,10.69,1.99l6.67-1.2c4.32-.78,7.37-2.63,9.33-5.64,4.58-7.03,2.06-18.18,2.03-18.3l-8.51-47.04c-.53-2.96,1.43-5.8,4.4-6.33,2.96-.54,5.79,1.43,6.32,4.39l8.44,46.73c.09.32,3.64,15.44-3.55,26.48-3.64,5.59-9.2,9.09-16.52,10.41Z"/>
  <path d="m386.78,50.96c-2.96.53-5.79-1.43-6.33-4.4l-5.27-29.14c-.53-2.96,1.43-5.8,4.39-6.33,2.96-.54,5.8,1.43,6.33,4.39l5.27,29.14c.54,2.96-1.43,5.8-4.39,6.33Z"/>
  <path d="m401.74,48.26c-2.96.53-5.79-1.43-6.33-4.4l-5.26-29.14c-.54-2.96,1.43-5.79,4.39-6.33,2.96-.54,5.8,1.43,6.33,4.39l5.27,29.14c.54,2.97-1.43,5.8-4.39,6.33Z"/>
  <path d="m407.95,125.39c-2.96.53-5.79-1.43-6.33-4.39l-5.64-31.2c-.54-2.96,1.43-5.79,4.39-6.32,2.96-.53,5.79,1.43,6.33,4.39l5.64,31.19c.54,2.96-1.43,5.79-4.39,6.32Z"/>
</svg>